<svg width="31" height="37" viewBox="0 0 31 37" fill="none" xmlns="http://www.w3.org/2000/svg">
<path d="M0.77555 1.21294C0.809457 0.869018 0.979753 0.551028 1.25088 0.325357C1.52202 0.0996861 1.87302 -0.0162221 2.23063 0.00183241C2.58823 0.0198869 2.92478 0.170508 3.17001 0.42225C3.41525 0.673991 3.55021 1.00739 3.54672 1.35285V10.2752C3.54672 10.5777 3.67128 10.8678 3.89299 11.0817C4.11471 11.2956 4.41541 11.4158 4.72896 11.4158C5.04251 11.4158 5.34322 11.2956 5.56493 11.0817C5.78665 10.8678 5.9112 10.5777 5.9112 10.2752V1.1521C5.9112 0.849606 6.03576 0.559496 6.25747 0.345597C6.47919 0.131698 6.77989 0.0115308 7.09344 0.0115308C7.40699 0.0115308 7.7077 0.131698 7.92941 0.345597C8.15113 0.559496 8.27568 0.849606 8.27568 1.1521V10.2752C8.27568 10.5777 8.40024 10.8678 8.62196 11.0817C8.84367 11.2956 9.14438 11.4158 9.45793 11.4158C9.77147 11.4158 10.0722 11.2956 10.2939 11.0817C10.5156 10.8678 10.6402 10.5777 10.6402 10.2752V1.35285C10.6443 1.01194 10.7827 0.685337 11.0275 0.43941C11.2722 0.193482 11.6048 0.0466914 11.9577 0.0288744C12.3106 0.0110575 12.6573 0.123551 12.9273 0.343491C13.1973 0.56343 13.3704 0.874308 13.4113 1.21294C13.5311 2.31093 14.1869 8.4898 14.1869 11.4173C14.1869 13.4521 13.2647 15.28 11.8066 16.5331C11.2802 16.9833 11.0342 17.4471 11.0342 17.8364V18.942L11.0358 19.0135C11.102 19.9244 11.8224 30.0953 11.8224 31.9476C11.8224 32.5467 11.7001 33.14 11.4624 33.6935C11.2248 34.247 10.8765 34.75 10.4373 35.1736C9.9982 35.5973 9.47688 35.9333 8.90314 36.1626C8.3294 36.3919 7.71446 36.5099 7.09344 36.5099C6.47243 36.5099 5.85749 36.3919 5.28375 36.1626C4.71 35.9333 4.18869 35.5973 3.74956 35.1736C3.31044 34.75 2.96211 34.247 2.72445 33.6935C2.4868 33.14 2.36448 32.5467 2.36448 31.9476C2.36448 30.0953 3.08644 19.9244 3.15107 19.0135L3.15264 18.942V17.8364C3.15264 17.4486 2.90674 16.9848 2.38024 16.5331C1.63153 15.8909 1.03231 15.103 0.622047 14.2212C0.211784 13.3394 -0.000218107 12.3838 1.68379e-07 11.4173C1.68379e-07 8.4898 0.65575 2.31093 0.77555 1.21294ZM21.9976 18.2607L21.9471 19.1063C21.873 20.3487 21.7737 22.0261 21.676 23.7628C21.4805 27.2104 21.2803 30.9622 21.2803 31.9476C21.2803 32.5467 21.4026 33.14 21.6403 33.6935C21.878 34.247 22.2263 34.75 22.6654 35.1736C23.1045 35.5973 23.6259 35.9333 24.1996 36.1626C24.7733 36.3919 25.3883 36.5099 26.0093 36.5099C26.6303 36.5099 27.2452 36.3919 27.819 36.1626C28.3927 35.9333 28.9141 35.5973 29.3532 35.1736C29.7923 34.75 30.1406 34.247 30.3783 33.6935C30.6159 33.14 30.7383 32.5467 30.7383 31.9476C30.7383 30.8511 30.4892 26.6645 30.2748 23.0435L30.2685 22.9432C30.0967 20.0552 29.9501 17.5764 29.9501 17.1201V1.1521C29.9501 0.849606 29.8255 0.559496 29.6038 0.345597C29.3821 0.131698 29.0814 0.0115308 28.7679 0.0115308H27.9797C25.1577 0.0115308 22.4514 1.09304 20.456 3.01813C18.4605 4.94322 17.3395 7.55421 17.3395 10.2767V15.5994C17.3395 17.0684 18.5754 18.2607 20.0981 18.2607H21.9976Z" fill="#044973"/>
</svg>
