<svg width="45" height="46" viewBox="0 0 45 46" fill="none" xmlns="http://www.w3.org/2000/svg">
<path d="M33.75 38L40.92 30.83C41.131 30.6192 41.2497 30.3333 41.25 30.035V20.1875C41.25 19.4416 40.9537 18.7262 40.4262 18.1988C39.8988 17.6713 39.1834 17.375 38.4375 17.375C37.6916 17.375 36.9762 17.6713 36.4488 18.1988C35.9213 18.7262 35.625 19.4416 35.625 20.1875V28.625" stroke="#044973" stroke-width="2.8125" stroke-linecap="round" stroke-linejoin="round"/>
<path d="M33.75 30.5L35.3587 28.8913C35.4436 28.8071 35.5109 28.7069 35.5566 28.5965C35.6023 28.486 35.6255 28.3676 35.625 28.2481C35.6237 28.0797 35.5761 27.915 35.4875 27.7718C35.3989 27.6286 35.2726 27.5125 35.1225 27.4363L34.2919 27.0219C33.5882 26.67 32.7916 26.5484 32.015 26.6743C31.2383 26.8001 30.521 27.167 29.9644 27.7231L28.2863 29.4012C27.5829 30.1043 27.1877 31.058 27.1875 32.0525V38M11.25 38L4.08 30.83C3.86896 30.6192 3.75026 30.3333 3.75 30.035V20.1875C3.75 19.4416 4.04632 18.7262 4.57376 18.1988C5.10121 17.6713 5.81658 17.375 6.5625 17.375C7.30842 17.375 8.02379 17.6713 8.55124 18.1988C9.07868 18.7262 9.375 19.4416 9.375 20.1875V28.625" stroke="#044973" stroke-width="2.8125" stroke-linecap="round" stroke-linejoin="round"/>
<path d="M11.25 30.5L9.64125 28.8913C9.47326 28.719 9.37793 28.4887 9.375 28.2481C9.375 27.905 9.57 27.5919 9.8775 27.4363L10.7081 27.0219C11.4118 26.67 12.2084 26.5484 12.985 26.6743C13.7617 26.8001 14.479 27.167 15.0356 27.7231L16.7137 29.4012C17.4171 30.1043 17.8123 31.058 17.8125 32.0525V38M25.6256 23H19.3744V18.6256H15V12.3744H19.3744V8H25.6256V12.3744H30V18.6256H25.6256V23Z" stroke="#044973" stroke-width="2.8125" stroke-linecap="round" stroke-linejoin="round"/>
</svg>
