<svg width="45" height="46" viewBox="0 0 45 46" fill="none" xmlns="http://www.w3.org/2000/svg">
<path d="M9.73949 2.22124C7.63645 2.1787 5.83856 4.20721 6.55434 6.87839C2.92674 5.90649 0.133577 9.89233 2.97104 12.5544C5.36913 14.8039 9.61996 13.6272 12.2516 13.7491L15.3812 16.8789L13.5531 18.7069C13.0549 18.4912 12.5178 18.3799 11.9749 18.3799C11.8781 18.3799 11.7815 18.3834 11.6851 18.3902C10.401 18.4825 9.18086 19.1874 8.4925 20.3797C7.39097 22.2869 8.05129 24.7505 9.95869 25.8518L10.7799 24.4292C9.64141 23.7718 9.25741 22.3393 9.91501 21.201C10.5482 20.1043 11.8994 19.7086 13.0153 20.2674L13.0847 20.3368L27.6025 34.855C29.5361 36.7886 32.1526 36.6333 33.8879 35.3862L41.7494 43.2477L42.9108 42.0864L35.0408 34.2162C35.5221 33.53 35.8301 32.7162 35.8698 31.8383C35.9255 30.6089 35.4279 29.2888 34.298 28.1589L19.6762 13.5365L19.7216 13.5104C19.0642 12.3718 19.4478 10.9393 20.5864 10.2821C21.7252 9.62471 23.1572 10.0083 23.8147 11.147L25.2372 10.3256C24.549 9.13348 23.3286 8.42869 22.0445 8.33667C21.9481 8.32959 21.8514 8.32613 21.7548 8.3263C21.0563 8.32602 20.37 8.50991 19.7653 8.85944C17.9375 9.91457 17.2563 12.2199 18.1709 14.0888L16.5425 15.7174L13.4676 12.6424C13.3761 10.0033 14.5207 5.47249 12.2162 3.30818C11.4319 2.57183 10.5622 2.23802 9.73923 2.22133L9.73949 2.22124ZM19.2 15.383L33.0325 29.2165L28.6596 33.5894L14.8265 19.7563L19.2 15.383ZM19.2736 17.701L18.1122 18.8624L29.5826 30.3327L30.744 29.1712L19.2735 17.7011L19.2736 17.701Z" fill="#044973"/>
</svg>
