<svg width="45" height="46" viewBox="0 0 45 46" fill="none" xmlns="http://www.w3.org/2000/svg">
<path d="M34.6875 23.9375C36.7586 23.9375 38.4375 22.2586 38.4375 20.1875C38.4375 18.1164 36.7586 16.4375 34.6875 16.4375C32.6164 16.4375 30.9375 18.1164 30.9375 20.1875C30.9375 22.2586 32.6164 23.9375 34.6875 23.9375Z" stroke="#044973" stroke-width="1.875"/>
<path d="M34.6875 21.125C35.2053 21.125 35.625 20.7053 35.625 20.1875C35.625 19.6697 35.2053 19.25 34.6875 19.25C34.1697 19.25 33.75 19.6697 33.75 20.1875C33.75 20.7053 34.1697 21.125 34.6875 21.125Z" fill="#044973"/>
<path d="M15.9375 28.625C17.4908 28.625 18.75 27.3658 18.75 25.8125C18.75 24.2592 17.4908 23 15.9375 23C14.3842 23 13.125 24.2592 13.125 25.8125C13.125 27.3658 14.3842 28.625 15.9375 28.625Z" fill="#044973"/>
<path d="M21.5626 8.9375H23.4376C24.4726 8.9375 25.3163 9.77563 25.2507 10.8088C24.8738 16.7338 22.6763 25.8125 15.9376 25.8125C9.20069 25.8125 7.00131 16.7338 6.62444 10.8088C6.55881 9.77563 7.40256 8.9375 8.43756 8.9375H10.3126" stroke="#044973" stroke-width="1.875" stroke-linecap="round"/>
<path d="M34.6875 23.9375V27.6875C34.6875 30.1739 33.6998 32.5585 31.9416 34.3166C30.1835 36.0748 27.7989 37.0625 25.3125 37.0625C22.8261 37.0625 20.4415 36.0748 18.6834 34.3166C16.9252 32.5585 15.9375 30.1739 15.9375 27.6875V25.8125" stroke="#044973" stroke-width="1.875" stroke-linecap="round"/>
</svg>
