<svg width="32" height="32" viewBox="0 0 32 32" fill="none" xmlns="http://www.w3.org/2000/svg">
<path d="M19.7863 21.68C23.813 22.44 26.6663 24.3867 26.6663 26.6667V29.3333H5.33301V26.6667C5.33301 24.3867 8.18634 22.44 12.213 21.68L15.9997 28L19.7863 21.68ZM10.6663 10.6667H21.333V13.3333C21.333 14.7478 20.7711 16.1044 19.7709 17.1046C18.7707 18.1048 17.4142 18.6667 15.9997 18.6667C14.5852 18.6667 13.2286 18.1048 12.2284 17.1046C11.2282 16.1044 10.6663 14.7478 10.6663 13.3333V10.6667ZM10.6663 9.33333L11.213 3.86667C11.2462 3.53664 11.4012 3.23082 11.6477 3.00892C11.8943 2.78703 12.2147 2.665 12.5463 2.66667H19.4663C20.1463 2.66667 20.7197 3.18667 20.7863 3.86667L21.333 9.33333H10.6663ZM15.9997 4H14.6663V5.33333H13.333V6.66667H14.6663V8H15.9997V6.66667H17.333V5.33333H15.9997V4Z" fill="#044973"/>
</svg>
