<svg width="22" height="28" viewBox="0 0 22 28" fill="none" xmlns="http://www.w3.org/2000/svg">
<path d="M11 0.666748C12.0608 0.666748 13.0783 1.08818 13.8284 1.83832C14.5786 2.58847 15 3.60588 15 4.66675C15 5.72761 14.5786 6.74503 13.8284 7.49517C13.0783 8.24532 12.0608 8.66675 11 8.66675C9.93911 8.66675 8.9217 8.24532 8.17155 7.49517C7.42141 6.74503 6.99998 5.72761 6.99998 4.66675C6.99998 3.60588 7.42141 2.58847 8.17155 1.83832C8.9217 1.08818 9.93911 0.666748 11 0.666748ZM21.6666 22.0001L19 14.7467C18.5333 13.4267 18.12 12.2801 16.3333 11.3334C14.4933 10.4001 13.16 10.0001 11 10.0001C8.82665 10.0001 7.50665 10.4001 5.66665 11.3334C3.87998 12.2801 3.46665 13.4267 2.99998 14.7467L0.333313 22.0001C-0.0933537 23.8001 3.47998 25.2534 5.81331 26.2534V23.3334C5.81331 22.0667 6.95998 21.1734 9.25331 20.6267C9.46665 20.5734 9.66665 20.5467 9.82665 20.5201C9.10665 19.4267 8.81331 18.4534 8.78665 18.3734L11.1466 17.5734C11.16 17.6001 11.84 19.6934 13.4533 20.7467C13.7333 20.8401 14.0133 20.9467 14.28 21.0667C15.3066 21.5201 15.92 22.1067 16.12 22.8134C14.3333 23.5201 12.6266 23.8801 11 23.8801L9.66665 23.7467V27.2534L11 27.3334C12.8266 27.3334 14.56 26.9601 16.1866 26.2534C18.52 25.2534 22 23.5067 21.6666 22.0001ZM15.6666 20.6667C15.1362 20.6667 14.6275 20.456 14.2524 20.081C13.8774 19.7059 13.6666 19.1972 13.6666 18.6667C13.6666 18.1363 13.8774 17.6276 14.2524 17.2525C14.6275 16.8775 15.1362 16.6667 15.6666 16.6667C16.1971 16.6667 16.7058 16.8775 17.0809 17.2525C17.4559 17.6276 17.6666 18.1363 17.6666 18.6667C17.6666 19.1972 17.4559 19.7059 17.0809 20.081C16.7058 20.456 16.1971 20.6667 15.6666 20.6667Z" fill="#044973"/>
</svg>
