<svg width="28" height="28" viewBox="0 0 28 28" fill="none" xmlns="http://www.w3.org/2000/svg">
<path d="M8.39996 0.666626H19.6C23.8666 0.666626 27.3333 4.13329 27.3333 8.39996V19.6C27.3333 21.651 26.5185 23.618 25.0683 25.0683C23.618 26.5185 21.651 27.3333 19.6 27.3333H8.39996C4.13329 27.3333 0.666626 23.8666 0.666626 19.6V8.39996C0.666626 6.34895 1.48139 4.38195 2.93167 2.93167C4.38195 1.48139 6.34895 0.666626 8.39996 0.666626ZM8.13329 3.33329C6.86025 3.33329 5.63936 3.83901 4.73918 4.73918C3.83901 5.63936 3.33329 6.86025 3.33329 8.13329V19.8666C3.33329 22.52 5.47996 24.6666 8.13329 24.6666H19.8666C21.1397 24.6666 22.3606 24.1609 23.2607 23.2607C24.1609 22.3606 24.6666 21.1397 24.6666 19.8666V8.13329C24.6666 5.47996 22.52 3.33329 19.8666 3.33329H8.13329ZM21 5.33329C21.442 5.33329 21.8659 5.50889 22.1785 5.82145C22.491 6.13401 22.6666 6.55793 22.6666 6.99996C22.6666 7.44199 22.491 7.86591 22.1785 8.17847C21.8659 8.49103 21.442 8.66663 21 8.66663C20.5579 8.66663 20.134 8.49103 19.8214 8.17847C19.5089 7.86591 19.3333 7.44199 19.3333 6.99996C19.3333 6.55793 19.5089 6.13401 19.8214 5.82145C20.134 5.50889 20.5579 5.33329 21 5.33329ZM14 7.33329C15.7681 7.33329 17.4638 8.03567 18.714 9.28591C19.9642 10.5362 20.6666 12.2318 20.6666 14C20.6666 15.7681 19.9642 17.4638 18.714 18.714C17.4638 19.9642 15.7681 20.6666 14 20.6666C12.2318 20.6666 10.5362 19.9642 9.28591 18.714C8.03567 17.4638 7.33329 15.7681 7.33329 14C7.33329 12.2318 8.03567 10.5362 9.28591 9.28591C10.5362 8.03567 12.2318 7.33329 14 7.33329ZM14 9.99996C12.9391 9.99996 11.9217 10.4214 11.1715 11.1715C10.4214 11.9217 9.99996 12.9391 9.99996 14C9.99996 15.0608 10.4214 16.0782 11.1715 16.8284C11.9217 17.5785 12.9391 18 14 18C15.0608 18 16.0782 17.5785 16.8284 16.8284C17.5785 16.0782 18 15.0608 18 14C18 12.9391 17.5785 11.9217 16.8284 11.1715C16.0782 10.4214 15.0608 9.99996 14 9.99996Z" fill="#044973"/>
</svg>
