<svg width="22" height="24" viewBox="0 0 22 24" fill="none" xmlns="http://www.w3.org/2000/svg">
<path d="M17.1333 3.76C16.2221 2.71937 15.7198 1.3832 15.72 0H11.6V16.5333C11.5688 17.4283 11.1913 18.2761 10.547 18.898C9.90276 19.5199 9.0421 19.8672 8.14663 19.8667C6.2533 19.8667 4.67997 18.32 4.67997 16.4C4.67997 14.1067 6.8933 12.3867 9.1733 13.0933V8.88C4.5733 8.26667 0.546631 11.84 0.546631 16.4C0.546631 20.84 4.22663 24 8.1333 24C12.32 24 15.72 20.6 15.72 16.4V8.01333C17.3906 9.21313 19.3965 9.85686 21.4533 9.85333V5.73333C21.4533 5.73333 18.9466 5.85333 17.1333 3.76Z" fill="#044973"/>
</svg>
