<svg width="24" height="24" viewBox="0 0 24 24" fill="none" xmlns="http://www.w3.org/2000/svg">
<path d="M18.5 12.5C19.6046 12.5 20.5 11.6046 20.5 10.5C20.5 9.39543 19.6046 8.5 18.5 8.5C17.3954 8.5 16.5 9.39543 16.5 10.5C16.5 11.6046 17.3954 12.5 18.5 12.5Z" stroke="#909090" stroke-width="1.875"/>
<path d="M18.5 11C18.7761 11 19 10.7761 19 10.5C19 10.2239 18.7761 10 18.5 10C18.2239 10 18 10.2239 18 10.5C18 10.7761 18.2239 11 18.5 11Z" fill="#909090"/>
<path d="M8.5 15C9.32843 15 10 14.3284 10 13.5C10 12.6716 9.32843 12 8.5 12C7.67157 12 7 12.6716 7 13.5C7 14.3284 7.67157 15 8.5 15Z" fill="#909090"/>
<path d="M11.5002 4.5H12.5002C13.0522 4.5 13.5022 4.947 13.4672 5.498C13.2662 8.658 12.0942 13.5 8.50016 13.5C4.90716 13.5 3.73416 8.658 3.53316 5.498C3.49816 4.947 3.94816 4.5 4.50016 4.5H5.50016" stroke="#909090" stroke-width="1.875" stroke-linecap="round"/>
<path d="M18.5 12.5V14.5C18.5 15.8261 17.9732 17.0979 17.0355 18.0355C16.0979 18.9732 14.8261 19.5 13.5 19.5C12.1739 19.5 10.9021 18.9732 9.96447 18.0355C9.02678 17.0979 8.5 15.8261 8.5 14.5V13.5" stroke="#909090" stroke-width="1.875" stroke-linecap="round"/>
</svg>
