<svg width="32" height="32" viewBox="0 0 32 32" fill="none" xmlns="http://www.w3.org/2000/svg">
<path d="M27.9999 25.3334V26.6667H3.99994V25.3334L6.66661 22.6667V14.6667C6.66661 10.5334 9.37328 6.89341 13.3333 5.72008V5.33341C13.3333 4.62617 13.6142 3.94789 14.1143 3.4478C14.6144 2.9477 15.2927 2.66675 15.9999 2.66675C16.7072 2.66675 17.3855 2.9477 17.8856 3.4478C18.3857 3.94789 18.6666 4.62617 18.6666 5.33341V5.72008C22.6266 6.89341 25.3333 10.5334 25.3333 14.6667V22.6667L27.9999 25.3334ZM18.6666 28.0001C18.6666 28.7073 18.3857 29.3856 17.8856 29.8857C17.3855 30.3858 16.7072 30.6667 15.9999 30.6667C15.2927 30.6667 14.6144 30.3858 14.1143 29.8857C13.6142 29.3856 13.3333 28.7073 13.3333 28.0001M26.3333 4.25341L24.4399 6.14675C25.5678 7.26055 26.4632 8.58721 27.0743 10.0498C27.6854 11.5123 28.0001 13.0817 27.9999 14.6667H30.6666C30.6666 10.7601 29.1199 7.00008 26.3333 4.25341ZM1.33328 14.6667H3.99994C3.99994 11.4667 5.27994 8.40008 7.55994 6.14675L5.66661 4.25341C4.29045 5.61551 3.1987 7.23751 2.4548 9.02516C1.7109 10.8128 1.32967 12.7305 1.33328 14.6667Z" fill="black"/>
</svg>
