<svg width="32" height="32" viewBox="0 0 32 32" fill="none" xmlns="http://www.w3.org/2000/svg">
<path fill-rule="evenodd" clip-rule="evenodd" d="M18.9441 6.44008C19.5485 6.62675 20.1263 6.86675 20.6774 7.16008L23.1214 5.69341C23.3763 5.54056 23.6749 5.47723 23.9698 5.51346C24.2648 5.5497 24.5391 5.68343 24.7494 5.89341L26.1067 7.25075C26.3167 7.46102 26.4505 7.73541 26.4867 8.03036C26.5229 8.3253 26.4596 8.62391 26.3067 8.87875L24.8401 11.3227C25.1334 11.8739 25.3734 12.4516 25.5601 13.0561L28.3241 13.7481C28.6124 13.8203 28.8683 13.9868 29.0512 14.2211C29.2341 14.4555 29.3334 14.7442 29.3334 15.0414V16.9587C29.3334 17.256 29.2341 17.5447 29.0512 17.779C28.8683 18.0133 28.6124 18.1799 28.3241 18.2521L25.5601 18.9441C25.3734 19.5485 25.1334 20.1263 24.8401 20.6774L26.3067 23.1214C26.4596 23.3763 26.5229 23.6749 26.4867 23.9698C26.4505 24.2648 26.3167 24.5391 26.1067 24.7494L24.7494 26.1067C24.5391 26.3167 24.2648 26.4505 23.9698 26.4867C23.6749 26.5229 23.3763 26.4596 23.1214 26.3067L20.6774 24.8401C20.1263 25.1334 19.5485 25.3734 18.9441 25.5601L18.2521 28.3241C18.1799 28.6124 18.0133 28.8683 17.779 29.0512C17.5447 29.2341 17.256 29.3334 16.9587 29.3334H15.0414C14.7442 29.3334 14.4555 29.2341 14.2211 29.0512C13.9868 28.8683 13.8203 28.6124 13.7481 28.3241L13.0561 25.5601C12.457 25.375 11.8767 25.1339 11.3227 24.8401L8.87875 26.3067C8.62391 26.4596 8.3253 26.5229 8.03036 26.4867C7.73541 26.4505 7.46102 26.3167 7.25075 26.1067L5.89341 24.7494C5.68343 24.5391 5.5497 24.2648 5.51346 23.9698C5.47723 23.6749 5.54056 23.3763 5.69341 23.1214L7.16008 20.6774C6.86627 20.1235 6.62521 19.5432 6.44008 18.9441L3.67608 18.2521C3.38797 18.1799 3.13221 18.0136 2.94936 17.7795C2.76652 17.5455 2.66705 17.2571 2.66675 16.9601V15.0427C2.66676 14.7455 2.76608 14.4568 2.94896 14.2225C3.13183 13.9881 3.38775 13.8216 3.67608 13.7494L6.44008 13.0574C6.62675 12.453 6.86675 11.8752 7.16008 11.3241L5.69341 8.88008C5.54056 8.62524 5.47723 8.32664 5.51346 8.03169C5.5497 7.73674 5.68343 7.46235 5.89341 7.25208L7.25075 5.89341C7.46102 5.68343 7.73541 5.5497 8.03036 5.51346C8.3253 5.47723 8.62391 5.54056 8.87875 5.69341L11.3227 7.16008C11.8739 6.86675 12.4516 6.62675 13.0561 6.44008L13.7481 3.67608C13.8203 3.38797 13.9866 3.13221 14.2206 2.94936C14.4547 2.76652 14.7431 2.66705 15.0401 2.66675H16.9574C17.2547 2.66676 17.5434 2.76608 17.7777 2.94896C18.012 3.13183 18.1785 3.38775 18.2507 3.67608L18.9441 6.44008ZM16.0001 21.3334C17.4146 21.3334 18.7711 20.7715 19.7713 19.7713C20.7715 18.7711 21.3334 17.4146 21.3334 16.0001C21.3334 14.5856 20.7715 13.229 19.7713 12.2288C18.7711 11.2287 17.4146 10.6667 16.0001 10.6667C14.5856 10.6667 13.229 11.2287 12.2288 12.2288C11.2287 13.229 10.6667 14.5856 10.6667 16.0001C10.6667 17.4146 11.2287 18.7711 12.2288 19.7713C13.229 20.7715 14.5856 21.3334 16.0001 21.3334Z" fill="black"/>
</svg>
